<?xml version="1.0" encoding="iso-8859-1"?>
<!-- Generator: Adobe Illustrator 19.0.0, SVG Export Plug-In . SVG Version: 6.00 Build 0)  -->
<svg xmlns="http://www.w3.org/2000/svg" xmlns:xlink="http://www.w3.org/1999/xlink" version="1.1" id="Layer_1" x="0px" y="0px" viewBox="0 0 502 502" style="enable-background:new 0 0 502 502;" xml:space="preserve" width="512" height="512">
<g>
	<g>
		<path style="fill:#4D4D4D;" d="M441.558,246.096c0,105.242-85.316,190.558-190.558,190.558S60.442,351.338,60.442,246.096H441.558    z"/>
		<polygon style="fill:#CCCCCC;" points="492,198.456 492,65.346 10,65.346 10,198.456 60.442,246.096 441.558,246.096   "/>
	</g>
	<g>
		<path d="M492,55.346H10c-5.523,0-10,4.477-10,10v133.111c0,2.751,1.134,5.381,3.134,7.27l47.363,44.732    C52.827,359.04,141.87,446.654,251,446.654s198.173-87.615,200.503-196.196l47.363-44.732c2-1.889,3.134-4.519,3.134-7.27V65.346    C502,59.823,497.523,55.346,492,55.346z M251,426.654c-96.206,0-175.079-75.63-180.285-170.559h360.569    C426.079,351.024,347.206,426.654,251,426.654z M482,194.146l-44.417,41.95H64.417l-30.749-29.041h308.408c5.523,0,10-4.477,10-10    s-4.477-10-10-10H20V75.346h462V194.146z"/>
		<path d="M402.326,207.055h19.616c5.523,0,10-4.477,10-10s-4.477-10-10-10h-19.616c-5.523,0-10,4.477-10,10    S396.803,207.055,402.326,207.055z"/>
		<path d="M251,412c32.86,0,57.64-15.142,57.64-35.221c0-20.08-24.78-35.221-57.64-35.221s-57.64,15.142-57.64,35.221    C193.36,396.858,218.14,412,251,412z M251,361.558c22.627,0,37.64,9.162,37.64,15.221S273.627,392,251,392    s-37.64-9.161-37.64-15.221S228.373,361.558,251,361.558z"/>
	</g>
</g>















</svg>
